<svg width="175" height="160" viewBox="0 0 175 160" fill="none" xmlns="http://www.w3.org/2000/svg">
<path d="M113.207 51.0062V13.0001H172.793V51.0062H113.207Z" fill="#FF9201"/>
<path d="M172.793 51.0061L147.906 31.7322C144.865 29.6411 140.838 29.6301 137.785 31.7024C129.233 37.5076 113.207 51.0061 113.207 51.0061H172.793Z" fill="#BCDCFF"/>
<path d="M138.761 31.144H138.586L113.206 13.0062L113.207 51.0061C113.207 51.0061 129.233 37.5076 137.784 31.7023C138.099 31.4894 138.428 31.3128 138.761 31.144Z" fill="#A7D0FE"/>
<path d="M147.414 31.144H146.892C147.237 31.3206 147.579 31.5082 147.905 31.7322L172.793 51.0061V13.0062L147.414 31.144Z" fill="#A7D0FE"/>
<path d="M172.793 13.0062L147.906 32.2801C144.864 34.3712 140.838 34.3822 137.785 32.3099C129.233 26.5047 113.207 13.0062 113.207 13.0062H172.793Z" fill="white"/>
<g clip-path="url(#clip0)">
<path d="M148.862 62.7387L103.274 18.1732C97.5827 12.6076 88.4172 12.6076 82.7255 18.1732L37.1379 62.7387V134H148.862V62.7387Z" fill="#FF9201"/>
<rect x="53.0002" y="30" width="80" height="104" rx="4" fill="white"/>
<g clip-path="url(#clip1)">
<path fill-rule="evenodd" clip-rule="evenodd" d="M73.0002 65.5C77.1423 65.5 80.5002 62.1421 80.5002 58C80.5002 53.8579 77.1423 50.5 73.0002 50.5C68.858 50.5 65.5002 53.8579 65.5002 58C65.5002 62.1421 68.858 65.5 73.0002 65.5ZM73.0002 70C79.6276 70 85.0002 64.6274 85.0002 58C85.0002 51.3726 79.6276 46 73.0002 46C66.3728 46 61.0002 51.3726 61.0002 58C61.0002 64.6274 66.3728 70 73.0002 70Z" fill="#4C9FFF"/>
<rect x="89.0002" y="51" width="36" height="6" rx="0.5" fill="#4C9FFF"/>
<rect opacity="0.4" x="89.0002" y="60" width="16" height="5" rx="0.5" fill="#4C9FFF"/>
</g>
<path d="M148.862 134L102.199 97.8613C96.4965 93.9406 88.9468 93.92 83.222 97.8055C67.1875 108.69 37.1379 134 37.1379 134H148.862Z" fill="#FFDC81"/>
<path d="M85.051 96.7587H84.7241L37.1379 63.6553V134C37.1379 134 67.1875 108.69 83.2199 97.8056C83.8096 97.4063 84.4282 97.0753 85.051 96.7587Z" fill="#FFCA00"/>
<path d="M101.276 96.7587H100.298C100.945 97.0898 101.587 97.4415 102.197 97.8615L148.862 134V63.6553L101.276 96.7587Z" fill="#FFB800"/>
</g>
<path d="M2.20651 147.006V109H61.7927V147.006H2.20651Z" fill="#FF9201"/>
<path d="M61.7932 147.006L36.906 127.732C33.8649 125.641 29.8384 125.63 26.7852 127.702C18.2335 133.508 2.20697 147.006 2.20697 147.006H61.7932Z" fill="#B4DE5D"/>
<path d="M27.7606 127.144H27.5863L2.20599 109.006L2.20697 147.006C2.20697 147.006 18.2335 133.508 26.7841 127.702C27.0986 127.489 27.4285 127.313 27.7606 127.144Z" fill="#8ED300"/>
<path d="M36.4139 127.144H35.8919C36.2373 127.321 36.5794 127.508 36.9049 127.732L61.7932 147.006V109.006L36.4139 127.144Z" fill="#8ED300"/>
<path d="M61.7927 109.006L36.9055 128.28C33.8644 130.371 29.838 130.382 26.7847 128.31C18.233 122.505 2.20651 109.006 2.20651 109.006H61.7927Z" fill="white"/>
<circle cx="145" cy="122" r="24" fill="white"/>
<g opacity="0.4">
<path d="M151 114.706C151 118.252 148.122 121.126 144.571 121.126C141.021 121.126 138.143 118.252 138.143 114.706C138.143 111.16 141.021 108.286 144.571 108.286C148.122 108.286 151 111.16 151 114.706Z" fill="#4C9FFF"/>
<path d="M157 135.679C157 135.679 148.913 135.759 143.714 135.679C139.517 135.614 133 135.679 133 135.679C133 135.679 134.714 122.838 145 122.838C155.286 122.838 157 135.679 157 135.679Z" fill="#4C9FFF"/>
</g>
<circle cx="163" cy="104" r="10" fill="#4C9FFF"/>
<path fill-rule="evenodd" clip-rule="evenodd" d="M163 99.3334C163.322 99.3334 163.583 99.5945 163.583 99.9167V103.417H167.083C167.405 103.417 167.667 103.678 167.667 104C167.667 104.322 167.405 104.583 167.083 104.583H163.583V108.083C163.583 108.406 163.322 108.667 163 108.667C162.678 108.667 162.417 108.406 162.417 108.083V104.583H158.917C158.594 104.583 158.333 104.322 158.333 104C158.333 103.678 158.594 103.417 158.917 103.417H162.417V99.9167C162.417 99.5945 162.678 99.3334 163 99.3334Z" fill="white"/>
<defs>
<clipPath id="clip0">
<rect width="120" height="120" fill="white" transform="translate(33 14)"/>
</clipPath>
<clipPath id="clip1">
<rect width="64" height="24" fill="white" transform="translate(61.0002 46)"/>
</clipPath>
</defs>
</svg>
