<svg xmlns="http://www.w3.org/2000/svg" width="32" height="32" fill="none" viewBox="0 0 32 32"><path fill="#8ED300" d="M28 32H16C15.6464 32 15.3072 31.8595 15.0572 31.6094C14.8071 31.3594 14.6667 31.0202 14.6667 30.6666V28C14.6667 27.6463 14.8071 27.3072 15.0572 27.0571C15.3072 26.8071 15.6464 26.6666 16 26.6666H28C28.3536 26.6666 28.6928 26.8071 28.9428 27.0571C29.1928 27.3072 29.3333 27.6463 29.3333 28V30.6666C29.3333 31.0202 29.1928 31.3594 28.9428 31.6094C28.6928 31.8595 28.3536 32 28 32Z"/><path fill="#4C9FFF" d="M28 0H3.99999C3.64637 0 3.30723 0.140475 3.05718 0.390523C2.80713 0.640572 2.66666 0.979711 2.66666 1.33333V4C2.66666 4.35362 2.80713 4.69276 3.05718 4.94281C3.30723 5.19286 3.64637 5.33333 3.99999 5.33333H28C28.3536 5.33333 28.6928 5.19286 28.9428 4.94281C29.1929 4.69276 29.3333 4.35362 29.3333 4V1.33333C29.3333 0.979711 29.1929 0.640572 28.9428 0.390523C28.6928 0.140475 28.3536 0 28 0Z"/><path fill="#F8431D" d="M28 8H3.99999C3.64637 8 3.30723 8.14047 3.05718 8.39052C2.80713 8.64057 2.66666 8.97971 2.66666 9.33333V22.6667C2.66666 23.0203 2.80713 23.3594 3.05718 23.6095C3.30723 23.8595 3.64637 24 3.99999 24H28C28.3536 24 28.6928 23.8595 28.9428 23.6095C29.1929 23.3594 29.3333 23.0203 29.3333 22.6667V9.33333C29.3333 8.97971 29.1929 8.64057 28.9428 8.39052C28.6928 8.14047 28.3536 8 28 8Z"/></svg>