<svg width="19" height="17" viewBox="0 0 19 17" fill="none" xmlns="http://www.w3.org/2000/svg">
<path d="M5.57734 16.6113C5.39401 16.6113 5.22318 16.5655 5.06484 16.4738C4.90651 16.3822 4.78568 16.253 4.70234 16.0863L2.75234 12.6113H4.20234L5.20234 14.6113H7.50234V13.6113H5.80234L4.80234 11.6113H2.20234L0.777344 9.11133C0.74401 9.028 0.714844 8.94466 0.689844 8.86133C0.664844 8.778 0.652344 8.69466 0.652344 8.61133C0.652344 8.54466 0.69401 8.378 0.777344 8.11133L2.20234 5.61133H4.80234L5.80234 3.61133H7.50234V2.61133H5.20234L4.20234 4.61133H2.75234L4.70234 1.13633C4.78568 0.969661 4.90651 0.840495 5.06484 0.748828C5.22318 0.657161 5.39401 0.611328 5.57734 0.611328H8.00234C8.28568 0.611328 8.52318 0.707161 8.71484 0.898828C8.90651 1.09049 9.00234 1.32799 9.00234 1.61133V5.61133H7.50234L6.50234 6.61133H9.00234V9.61133H6.80234L5.80234 7.61133H3.50234L2.50234 8.61133H5.20234L6.20234 10.6113H9.00234V15.6113C9.00234 15.8947 8.90651 16.1322 8.71484 16.3238C8.52318 16.5155 8.28568 16.6113 8.00234 16.6113H5.57734ZM11.0023 16.6113C10.719 16.6113 10.4815 16.5155 10.2898 16.3238C10.0982 16.1322 10.0023 15.8947 10.0023 15.6113V10.6113H12.8023L13.8023 8.61133H16.5023L15.5023 7.61133H13.2023L12.2023 9.61133H10.0023V6.61133H12.5023L11.5023 5.61133H10.0023V1.61133C10.0023 1.32799 10.0982 1.09049 10.2898 0.898828C10.4815 0.707161 10.719 0.611328 11.0023 0.611328H13.4273C13.6107 0.611328 13.7815 0.657161 13.9398 0.748828C14.0982 0.840495 14.219 0.969661 14.3023 1.13633L16.2523 4.61133H14.8023L13.8023 2.61133H11.5023V3.61133H13.2023L14.2023 5.61133H16.8023L18.2273 8.11133C18.2607 8.19466 18.2898 8.27799 18.3148 8.36133C18.3398 8.44466 18.3523 8.52799 18.3523 8.61133C18.3523 8.67799 18.3107 8.84466 18.2273 9.11133L16.8023 11.6113H14.2023L13.2023 13.6113H11.5023V14.6113H13.8023L14.8023 12.6113H16.2523L14.3023 16.0863C14.219 16.253 14.0982 16.3822 13.9398 16.4738C13.7815 16.5655 13.6107 16.6113 13.4273 16.6113H11.0023Z" fill="#FAFAFC"/>
</svg>
