<svg xmlns="http://www.w3.org/2000/svg" width="933.333" height="933.333" version="1" viewBox="0 0 700 700"><path d="M340.7 40c-7 1.3-16.8 6.5-22.6 12.3-4 3.9-6.9 8.5-13 20.8-15.6 31-28.3 49.3-46.1 66.8-20.5 20.2-44.2 32.2-71.2 35.8-7.2 1-32 .9-39.3-.1-3.3-.5-6.9-.9-8-1.1-3.5-.3-9.7-1.6-18-3.7-10.2-2.5-20.3-2.5-27.9.2-32 11-41.2 49-18 74.5 23.4 25.6 38.4 55.7 42 84 1.5 11.4.6 28.7-2.1 42-2.3 11.3-10.9 33.6-18.1 47-3.6 6.7-13.9 23.9-15.6 26-6.8 8.4-15.5 21.1-17.4 25.2-7.7 17.1-4 37.1 9.5 50.3 12.7 12.4 26.5 15.5 47.9 10.5 12.6-2.8 16.7-3.6 27.7-5 6.1-.7 28.9-.9 33-.2 1.7.3 5 .9 7.5 1.2 9.2 1.5 14.2 2.8 23.5 6.2 20.4 7.4 42.7 24.1 57.8 43.3 2.8 3.6 5.4 6.7 5.8 7 1.4 1.1 14.8 22 19.6 30.5 2.8 4.9 7.2 13.3 9.8 18.7 3.3 6.8 6.2 11.2 10.2 15.2 19.2 19.3 51.3 17.2 67.4-4.4 1.5-1.9 5.8-9.6 9.7-17.1 27.4-53 57.5-82.9 95.7-94.8 15.5-4.8 23.8-5.9 43.5-5.6 18.6.3 24.6 1 43 5.1 22.1 5 35.6 2 48.4-10.8 12.8-12.9 16.7-30.6 10.5-47.3-1.1-3-6.1-11-11.1-17.7-4.9-6.8-9.7-13.6-10.5-15.3-.9-1.6-1.9-3.2-2.2-3.5-1.4-1-10.2-16.9-15-27-7.6-16-12.4-30.2-14.5-43.5-1.4-8.7-1.6-11.4-1.7-21.5 0-10.5.3-14.1 2.2-23.7.6-2.9 1-5.4.9-5.5-.2-.6 4.9-14.6 7.5-20.8 5.3-12.8 19.2-34.3 28.4-44.3 7.7-8.3 9.4-10.4 11.6-14.2 13.8-23.8 3.2-54.2-22.5-64.3-9.1-3.6-17.6-3.8-32-.7-20.5 4.3-30.2 5.3-47.5 5-8.8-.2-17.1-.5-18.5-.8-1.4-.2-4.3-.7-6.6-1.1-2.2-.4-7-1.5-10.5-2.5-32.1-9.3-59-31.2-82.2-66.7-6.8-10.5-17.2-29.3-20-36.3-8.2-20.4-29.3-32-51-28.1zm16.6 141.7c26.5 31.9 57.3 55 91.7 68.6 10.4 4.1 19.4 7.1 24.6 8.2 1.1.2 4.8 1 8.4 1.9 6.7 1.5 10.8 2.2 18.8 3.2 2.6.3 4.8.7 5 .9.2.2-1.7 6.6-4.1 14.2-4.8 14.6-5.6 18.1-8.8 36.3-2 11.7-1.6 57.5.6 61 .2.3.6 3 1 6s.9 5.8 1.1 6.2c.2.4.8 2.6 1.3 5 .8 3.8 1.5 6.6 2.5 10.3 1.5 5.8 5.2 16.6 7.9 23.6l3.4 8.7-7.1.7c-11.1 1-30 5.2-43.1 9.6-24.6 8.1-47.6 21-70.5 39.4-6 4.9-28.3 27.8-34.2 35.2l-6.6 8.2-2.3-3.3c-13.7-19.2-41.9-45.1-63.4-58.2-11.5-7.1-11.4-7-18.5-10.5-16.9-8.3-36.7-15-51-17.4-1.9-.3-4.2-.8-5-1-.8-.2-3.5-.7-6-1-11-1.4-13-1.8-13-2.4 0-.3 1.4-4.2 3.1-8.6 6.1-15.6 11.4-36.1 14.5-56 1-6.5 1.3-43.5.4-49-.4-2.8-1.1-7.3-1.4-10-.4-2.8-.9-5.7-1.1-6.5-.2-.8-.6-2.6-.9-4-1.3-7.2-5-20.5-8-28.4-1.4-3.8-2.6-7-2.6-7.1 0-.2 2.2-.6 4.8-1 13.4-1.8 14.8-2.1 25.9-4.9 42.2-10.8 82.7-36.5 111.8-71.1 2.8-3.3 5.8-6.8 6.8-7.9.9-1.1 2.7-3.4 3.9-5.2 1.3-1.8 2.3-3.2 2.4-3.1.1.1 3.6 4.3 7.7 9.4z"/></svg>