<?xml version="1.0" encoding="UTF-8" standalone="no"?>
<svg
   xmlns="http://www.w3.org/2000/svg"
   viewBox="0 0 300 300">
  <path
     d="m 258.86276,162.14696 c -6.45476,-6.2374 -16.95137,-6.26473 -23.38031,0 -4.32603,4.21545 -10.02292,6.53252 -16.07556,6.53252 -4.75611,0 -7.76843,-2.85965 -11.44336,-5.33895 -6.77808,-4.57343 -1.6996,-11.18845 2.70619,-18.07751 6.71462,-10.49874 10.58863,-22.98985 10.53749,-36.39046 -0.14408,-36.427219 -29.72553,-66.340568 -66.14932,-66.870035 -37.54305,-0.546098 -68.148609,29.723342 -68.148609,67.141345 0,13.31604 3.87802,25.72611 10.5654,36.1634 4.399539,6.86869 2.633969,16.07613 -4.12694,20.63802 -3.675,2.47918 -8.098424,3.92774 -12.854616,3.92774 -6.052784,0 -11.749504,-2.31696 -16.075557,-6.5325 -6.42911,-6.26535 -16.724909,-6.65456 -23.178011,-0.41717 -6.59887,6.37923 -6.667089,16.90031 -0.202963,23.36271 10.53931,10.53952 24.552411,16.34332 39.456531,16.34332 15.592196,0 29.710635,-6.4331 39.845835,-16.78038 -2.82824,14.56089 -8.9968,30.03304 -22.460139,44.70491 -6.11604,6.66498 -5.67091,17.02588 0.99391,23.14118 3.145309,2.88499 7.112049,4.30965 11.069219,4.30965 4.42754,0 8.84213,-1.78398 12.07193,-5.30415 17.77495,-19.37218 26.11122,-39.81246 30.02067,-58.32701 0.46302,-2.19503 3.58434,-2.19503 4.0472,0 3.9095,18.51455 6.89794,26.96057 24.67423,46.33279 3.23053,3.51949 7.64512,5.3034 12.07269,5.3034 3.95651,0 7.92323,-1.42402 11.06845,-4.30893 6.66351,-6.11603 7.11004,-16.47625 0.9926,-23.14112 -13.46332,-14.67182 -14.28401,-18.14983 -17.11237,-32.71072 10.13533,10.34728 16.03531,15.58685 31.62952,15.58685 14.90368,0 28.9171,-5.80385 39.45585,-16.34348 6.46248,-6.4623 6.59944,-16.5662 0,-22.94542 z"
     style="fill:#ffffff;stroke-width:0.68168443" />
  <path
     d="m 111.85687,105.80093 c -1.95784,0 -3.54208,-1.58635 -3.54208,-3.54209 v -6.653879 c 0,-1.955786 1.58424,-3.541986 3.54208,-3.541986 1.95507,0 3.54196,1.5862 3.54196,3.541986 v 6.653879 c 0,1.95574 -1.58689,3.54209 -3.54196,3.54209 z"
     style="fill:#414141;stroke-width:0.68168443" />
  <path
     d="m 190.69232,105.80093 c -1.95575,0 -3.5421,-1.58635 -3.5421,-3.54209 v -6.653879 c 0,-1.955786 1.58635,-3.541986 3.5421,-3.541986 1.95714,0 3.54199,1.5862 3.54199,3.541986 v 6.653879 c 0,1.95574 -1.58485,3.54209 -3.54199,3.54209 z"
     style="fill:#414141;stroke-width:0.68168443" />
  <path
     d="m 150.51794,129.35109 -4.1835,-5.2306 c -0.55491,-0.69325 0.067,-1.69944 0.9352,-1.5133 l 3.48616,0.74708 c 0.33131,0.071 0.67487,-0.0407 0.90055,-0.29239 l 11.43043,-12.72433 c 0.38113,-0.42402 1.04846,-0.41654 1.41997,0.007 l 0.22971,0.26852 c 0.285,0.33272 0.30479,0.81737 0.0463,1.17118 l -12.76391,17.5238 c -0.36677,0.50304 -1.11179,0.52002 -1.50103,0.0342 z"
     style="fill:#414141;stroke-width:0.68168443" />
  <path
     d="m 153.58479,127.18872 -1.56444,2.13375 c -0.36814,0.50169 -1.11116,0.51737 -1.49969,0.0311 l -1.68855,-2.11044 c -0.22835,-0.28627 -0.27202,-0.67964 -0.0647,-0.98099 0.43359,-0.62845 1.30614,-1.61281 2.52365,-1.61281 1.25157,0 2.02323,1.03959 2.37359,1.66463 0.15688,0.27889 0.10964,0.61633 -0.0798,0.8746 z"
     style="fill:#d11f1f;stroke-width:0.68168443" />
  <path
     d="m 151.17297,128.42738 c 0,0.0658 0.0525,0.11857 0.11761,0.11857 0.0655,0 0.11781,-0.0529 0.11781,-0.11857 z m -0.005,-2.64963 c -0.0293,-0.0587 -0.1,-0.0825 -0.15858,-0.0529 -0.0581,0.0291 -0.0817,0.10016 -0.0521,0.15859 z m 0.12998,2.64963 c 0.11819,0 0.11819,0 0.11819,0 0,0 0,0 0,0 0,0 0,0 0,0 0,-6.7e-4 0,-6.7e-4 0,-0.002 0,-0.002 0,-0.004 0,-0.005 0,-0.005 0,-0.005 0,-0.008 0,-0.007 0,-0.0393 0,-0.0689 -6.1e-4,-0.0597 -0.002,-0.14464 -0.005,-0.24875 -0.005,-0.2073 -0.005,-0.4889 -0.0261,-0.78611 -0.007,-0.2965 -0.0378,-0.60939 -0.0711,-0.87938 -0.0329,-0.26383 -0.079,-0.50446 -0.14782,-0.64276 l -0.21141,0.10528 c 0.0486,0.0967 0.0916,0.29929 0.12466,0.56651 0.0325,0.26174 0.0547,0.56849 0.07,0.86242 0.006,0.29307 0.0213,0.57256 0.0261,0.77848 0.002,0.10227 0.004,0.18671 0.004,0.2453 6.9e-4,0.0303 6.9e-4,0.0525 6.9e-4,0.0683 0,0.005 0,0.006 0,0.008 0,0.003 0,0.005 0,0.005 0,6.7e-4 0,0.002 0,0.002 0,0 0,0 0,0 0,0 0,0 0,0 0,0 0,0 0.11797,0 z"
     style="fill:#ac1b1b;stroke-width:0.68168443" />
</svg>
