<?xml version="1.0" encoding="UTF-8" standalone="no"?>
<svg
   xmlns:dc="http://purl.org/dc/elements/1.1/"
   xmlns:cc="http://creativecommons.org/ns#"
   xmlns:rdf="http://www.w3.org/1999/02/22-rdf-syntax-ns#"
   xmlns:svg="http://www.w3.org/2000/svg"
   xmlns="http://www.w3.org/2000/svg"
   xmlns:sodipodi="http://sodipodi.sourceforge.net/DTD/sodipodi-0.dtd"
   xmlns:inkscape="http://www.inkscape.org/namespaces/inkscape"
   inkscape:version="1.0 (4035a4fb49, 2020-05-01)"
   sodipodi:docname="maevsi.svg"
   id="svg18"
   version="1.1"
   fill="none"
   viewBox="0 0 547 180"
   height="180"
   width="547">
  <metadata
     id="metadata24">
    <rdf:RDF>
      <cc:Work
         rdf:about="">
        <dc:format>image/svg+xml</dc:format>
        <dc:type
           rdf:resource="http://purl.org/dc/dcmitype/StillImage" />
        <dc:title></dc:title>
      </cc:Work>
    </rdf:RDF>
  </metadata>
  <defs
     id="defs22" />
  <sodipodi:namedview
     inkscape:current-layer="svg18"
     inkscape:window-maximized="1"
     inkscape:window-y="0"
     inkscape:window-x="1920"
     inkscape:cy="90"
     inkscape:cx="273.5"
     inkscape:zoom="2.4095064"
     showgrid="false"
     id="namedview20"
     inkscape:window-height="1043"
     inkscape:window-width="1920"
     inkscape:pageshadow="2"
     inkscape:pageopacity="0"
     guidetolerance="10"
     gridtolerance="10"
     objecttolerance="10"
     borderopacity="1"
     bordercolor="#666666"
     pagecolor="#ffffff" />
  <path
     id="path2"
     stroke-linecap="round"
     stroke-width="20"
     stroke="#282655"
     d="m 137.99243,120.8556 c -23.456,-5.987 -41.969996,1.979 -54.510296,28.458" />
  <path
     id="path4"
     fill="#8ed300"
     d="m 147.68243,123.3286 c 1.365,-5.352 -1.866,-10.797 -7.217,-12.163 -13.388,-3.416 -26.465,-3.1 -38.285,2.796 -11.736996,5.854 -20.843096,16.517 -27.736196,31.072 -2.3638,4.992 -0.2337,10.954 4.7577,13.318 4.9914,2.364 10.9545,0.234 13.3175,-4.758 5.647,-11.924 12.067996,-18.483 18.587996,-21.735 6.435,-3.21 14.344,-3.883 24.412,-1.314 5.352,1.366 10.797,-1.865 12.163,-7.216 z"
     clip-rule="evenodd"
     fill-rule="evenodd" />
  <path
     id="path6"
     stroke-linecap="round"
     stroke-width="20"
     stroke="#f8431d"
     d="m 137.52243,59.540506 c -16.071,18.1045 -17.318,38.0345 0.47,61.315094" />
  <path
     id="path8"
     stroke-linecap="round"
     stroke-width="20"
     stroke="#4c9fff"
     d="m 137.80143,59.398912 c -23.504,5.7947 -41.986996,-2.123406 -54.310096,-28.704206" />
  <path
     id="path10"
     stroke-linecap="round"
     stroke-width="20"
     stroke="#8ed300"
     d="m 29.721234,59.605106 c 23.5044,5.7947 41.475292,-2.341147 53.798892,-28.921947" />
  <path
     id="path12"
     stroke-linecap="round"
     stroke-width="20"
     stroke="#f8431d"
     d="m 29.715434,59.540506 c 16.0705,18.1045 17.3478,37.9845 -0.44,61.265094" />
  <path
     id="path14"
     fill="#4c9fff"
     d="m 26.739134,111.1566 c -5.3513,1.365 -8.5823,6.81 -7.2166,12.162 1.3657,5.351 6.8109,8.582 12.1622,7.216 10.0747,-2.571 17.9023,-1.888 24.2554,1.306 6.4503,3.242 12.822,9.796 18.4851,21.754 1.8208,3.845 5.7767,5.992 9.7793,5.695 -1.6659,0.122 -3.3852,-0.172 -5.0026,-0.938 -4.9914,-2.364 -7.1215,-8.326 -4.7577,-13.318 2.6729,-5.644 5.6785,-10.703 9.0413,-15.123 -5.273,-6.964 -11.4225,-12.351 -18.5634,-15.94 -11.7734,-5.918 -24.8013,-6.23 -38.183,-2.814 z"
     clip-rule="evenodd"
     fill-rule="evenodd" />
  <path
     id="path16"
     fill="#ffffff"
     d="m 262.50343,60.059106 c 7.609,0 13.636,2.2223 18.08,6.667 4.445,4.3693 6.667,10.961 6.667,19.775 V 121.0786 h -14.125 V 88.309106 c 0,-5.2734 -1.167,-9.2284 -3.503,-11.865 -2.335,-2.712 -5.687,-4.068 -10.057,-4.068 -4.746,0 -8.55,1.582 -11.413,4.746 -2.862,3.0886 -4.294,7.5333 -4.294,13.334 V 121.0786 h -14.125 V 88.309106 c 0,-5.2734 -1.167,-9.2284 -3.503,-11.865 -2.335,-2.712 -5.687,-4.068 -10.057,-4.068 -4.821,0 -8.663,1.5443 -11.526,4.633 -2.787,3.0886 -4.181,7.571 -4.181,13.447 V 121.0786 h -14.125 V 60.737106 h 13.447 v 7.684 c 2.26,-2.712 5.085,-4.7837 8.475,-6.215 3.39,-1.4314 7.157,-2.147 11.3,-2.147 4.52,0 8.513,0.8663 11.978,2.599 3.541,1.6573 6.328,4.1433 8.362,7.458 2.486,-3.164 5.688,-5.6124 9.605,-7.345 3.918,-1.808 8.249,-2.712 12.995,-2.712 z m 132.406,30.623 c 0,1.7326 -0.113,3.2393 -0.339,4.52 h -47.573 c 0.754,4.52 2.863,8.098494 6.328,10.734494 3.466,2.637 7.873,3.955 13.221,3.955 6.479,0 11.941,-2.184 16.385,-6.554 l 7.684,8.701 c -2.862,3.24 -6.365,5.688 -10.509,7.345 -4.068,1.658 -8.701,2.486 -13.899,2.486 -5.499,0 -10.509,-0.904 -15.029,-2.712 -4.444,-1.808 -8.211,-4.595 -11.3,-8.362 -2.41,3.918 -5.687,6.743 -9.831,8.475 -4.143,1.733 -8.701,2.599 -13.673,2.599 -7.533,0 -13.484,-1.695 -17.854,-5.085 -4.369,-3.465 -6.554,-7.985 -6.554,-13.56 0,-5.122194 2.034,-9.265494 6.102,-12.429494 4.068,-3.2394 10.396,-4.859 18.984,-4.859 h 15.594 v -1.017 c 0,-4.2187 -1.28,-7.458 -3.842,-9.718 -2.486,-2.26 -6.177,-3.39 -11.074,-3.39 -3.465,0 -6.855,0.5273 -10.17,1.582 -3.239,1.0546 -5.989,2.5236 -8.249,4.407 l -5.537,-10.283 c 3.164,-2.4107 6.969,-4.2564 11.413,-5.537 4.445,-1.2807 9.116,-1.921 14.012,-1.921 10.622,0 18.118,3.0886 22.487,9.266 2.712,-2.938 5.989,-5.198 9.831,-6.78 3.918,-1.6574 8.136,-2.486 12.656,-2.486 5.801,0 11.037,1.3183 15.707,3.955 4.671,2.5613 8.325,6.1773 10.961,10.848 2.712,4.5953 4.068,9.8686 4.068,15.82 z m -30.849,-19.323 c -4.218,0 -7.985,1.2806 -11.3,3.842 -3.239,2.5613 -5.198,6.1396 -5.876,10.735 h 34.126 c -0.602,-4.5954 -2.523,-8.1737 -5.763,-10.735 -3.239,-2.5614 -6.968,-3.842 -11.187,-3.842 z m -46.443,40.227494 c 4.671,0 8.325,-1.205 10.961,-3.616 2.712,-2.41 4.068,-5.612 4.068,-9.604494 v -3.164 h -14.577 c -8.136,0 -12.204,2.599 -12.204,7.796494 0,2.712 1.017,4.822 3.051,6.328 2.11,1.507 5.01,2.26 8.701,2.26 z m 139.461,-50.849494 -25.877,60.341494 h -14.577 l -25.877,-60.341494 h 14.69 l 18.758,44.747494 19.323,-44.747494 z m 21.823,61.132494 c -4.897,0 -9.68,-0.64 -14.351,-1.921 -4.671,-1.28 -8.4,-2.9 -11.187,-4.859 l 5.424,-10.735 c 2.712,1.808 5.951,3.277 9.718,4.407 3.842,1.055 7.609,1.582 11.3,1.582 8.437,0 12.656,-2.222 12.656,-6.667 0,-2.109 -1.092,-3.5779 -3.277,-4.406494 -2.109,-0.8287 -5.537,-1.6197 -10.283,-2.373 -4.972,-0.7534 -9.04,-1.6197 -12.204,-2.599 -3.089,-0.9794 -5.801,-2.6744 -8.136,-5.085 -2.26,-2.486 -3.39,-5.9137 -3.39,-10.283 0,-5.7254 2.373,-10.283 7.119,-13.673 4.821,-3.4654 11.3,-5.198 19.436,-5.198 4.143,0 8.287,0.4896 12.43,1.469 4.143,0.904 7.533,2.147 10.17,3.729 l -5.424,10.735 c -5.123,-3.0134 -10.886,-4.52 -17.289,-4.52 -4.143,0 -7.307,0.6403 -9.492,1.921 -2.109,1.2053 -3.164,2.825 -3.164,4.859 0,2.26 1.13,3.8796 3.39,4.859 2.335,0.904 5.914,1.7703 10.735,2.599 4.821,0.7533 8.776,1.6196 11.865,2.599 3.089,0.9793 5.725,2.6366 7.91,4.972 2.26,2.3353 3.39,5.65 3.39,9.943494 0,5.65 -2.448,10.17 -7.345,13.56 -4.897,3.39 -11.564,5.085 -20.001,5.085 z m 32.73,-61.132494 h 14.125 V 121.0786 h -14.125 z m 7.119,-9.944 c -2.561,0 -4.708,-0.791 -6.441,-2.373 -1.732,-1.6574 -2.599,-3.6914 -2.599,-6.102 0,-2.4107 0.867,-4.407 2.599,-5.989 1.733,-1.6574 3.88,-2.486 6.441,-2.486 2.562,0 4.709,0.791 6.441,2.373 1.733,1.5066 2.599,3.4276 2.599,5.763 0,2.486 -0.866,4.5953 -2.599,6.328 -1.657,1.6573 -3.804,2.486 -6.441,2.486 z" />
</svg>
