<?xml version="1.0" encoding="UTF-8" standalone="no"?>
<svg xmlns="http://www.w3.org/2000/svg" viewBox="0 0 386 107">
   <path d="m 105.69785,59.575878 c -3.04142,-2.938969 -7.987282,-2.951836 -11.016525,0 -2.038362,1.98628 -4.722648,3.07809 -7.574586,3.07809 -2.241015,0 -3.660397,-1.34746 -5.391995,-2.51568 -3.193707,-2.154946 -0.800765,-5.271855 1.275157,-8.517894 3.163825,-4.946857 4.989214,-10.832512 4.96514,-17.146704 C 87.887278,17.30964 73.948731,3.214859 56.786328,2.96538 39.096499,2.708068 24.675536,16.970645 24.675536,34.601513 c 0,6.274353 1.827313,12.12182 4.978298,17.039738 2.073027,3.236424 1.241118,7.574887 -1.944557,9.724387 -1.731592,1.16816 -3.815862,1.85069 -6.056916,1.85069 -2.85198,0 -5.536226,-1.09172 -7.574599,-3.07804 -3.02931,-2.952154 -7.8805727,-3.135551 -10.9211872,-0.19656 -3.1092919,3.0058 -3.1414456,7.9632 -0.09562,11.00821 4.9659889,4.96608 11.5687912,7.70076 18.5914062,7.70076 7.346861,0 13.999258,-3.03118 18.774876,-7.90669 -1.332663,6.86088 -4.239211,14.15117 -10.582934,21.06437 -2.881816,3.14044 -2.672071,8.02234 0.468308,10.903822 1.482023,1.35936 3.351094,2.03066 5.215669,2.03066 2.086198,0 4.166297,-0.84059 5.688147,-2.49924 8.375319,-9.127922 12.303283,-18.759122 14.145373,-27.482962 0.218096,-1.03427 1.688879,-1.03427 1.906974,0 1.842085,8.72384 3.25023,12.70349 11.626178,21.83142 1.522166,1.65833 3.602282,2.49892 5.688481,2.49892 1.864252,0 3.733327,-0.67098 5.215338,-2.03034 3.139756,-2.88178 3.350138,-7.76338 0.467671,-10.90379 -6.343715,-6.9132 -6.730435,-8.55198 -8.063112,-15.41286 4.775626,4.87551 7.555613,7.34432 14.903409,7.34432 7.022416,0 13.625361,-2.7347 18.591111,-7.70082 3.04501,-3.04497 3.10955,-7.80583 0,-10.81163 z" style="fill:#ffffff;stroke-width:0.32120103" />
   <path d="m 36.430527,33.026371 c -0.922489,0 -1.668955,-0.747456 -1.668955,-1.668978 v -3.135234 c 0,-0.921527 0.746466,-1.668957 1.668955,-1.668957 0.921209,0 1.668966,0.74743 1.668966,1.668957 v 3.135234 c 0,0.921522 -0.747757,1.668978 -1.668966,1.668978 z" style="fill:#414141;stroke-width:0.32120103" />
   <path d="m 73.57679,33.026371 c -0.921531,0 -1.668963,-0.747456 -1.668963,-1.668978 v -3.135234 c 0,-0.921527 0.747432,-1.668957 1.668963,-1.668957 0.92217,0 1.668963,0.74743 1.668963,1.668957 v 3.135234 c 0,0.921522 -0.746793,1.668978 -1.668963,1.668978 z" style="fill:#414141;stroke-width:0.32120103" />
   <path d="m 54.647127,44.122871 -1.971208,-2.464546 c -0.261458,-0.32665 0.03149,-0.800761 0.440684,-0.71306 l 1.642628,0.352006 c 0.156099,0.03335 0.317989,-0.01918 0.424305,-0.137776 l 5.385897,-5.995538 c 0.179557,-0.199791 0.494011,-0.196252 0.66906,0.0072 l 0.108243,0.126537 c 0.134265,0.156754 0.143579,0.385123 0.02184,0.551834 l -6.014168,8.2569 c -0.17281,0.237035 -0.523879,0.245056 -0.70729,0.01608 z" style="fill:#414141;stroke-width:0.32120103" />
   <path d="m 56.09221,43.104043 -0.737153,1.005355 c -0.173452,0.236415 -0.52356,0.243798 -0.706643,0.01481 l -0.795615,-0.994419 c -0.107603,-0.134896 -0.128161,-0.32024 -0.03052,-0.462225 0.204284,-0.296123 0.615424,-0.759935 1.189085,-0.759935 0.589727,0 0.953328,0.489829 1.118427,0.784365 0.07388,0.131375 0.05171,0.290369 -0.03755,0.412101 z" style="fill:#d11f1f;stroke-width:0.32120103" />
   <path d="m 54.955802,43.687668 c 0,0.03085 0.02476,0.05589 0.05555,0.05589 0.03086,0 0.05554,-0.02501 0.05554,-0.05589 z m -0.0049,-1.248494 c -0.01382,-0.02762 -0.04722,-0.03891 -0.07485,-0.02503 -0.02732,0.0137 -0.03854,0.04717 -0.02472,0.07483 z m 0.06134,1.248494 c 0.05556,0 0.05556,0 0.05556,0 0,0 0,0 0,0 0,0 0,0 0,0 0,-3.23e-4 0,-3.23e-4 0,-0.002 0,-0.002 0,-0.004 0,-0.0049 0,-0.0049 0,-0.0049 0,-0.0082 0,-0.0073 0,-0.01846 0,-0.03238 -3.18e-4,-0.02799 -0.002,-0.0681 -0.0049,-0.11722 -0.0049,-0.09765 -0.0049,-0.230323 -0.0122,-0.370366 -0.0066,-0.139721 -0.01768,-0.287165 -0.03342,-0.414354 -0.01574,-0.124312 -0.03725,-0.237684 -0.06971,-0.302879 l -0.09957,0.04975 c 0.02281,0.04561 0.04304,0.141023 0.0588,0.266923 0.01542,0.12333 0.0257,0.267872 0.03276,0.406336 0.0061,0.138102 0.01028,0.269797 0.0122,0.366816 0.002,0.04821 0.004,0.088 0.004,0.115619 3.17e-4,0.01424 3.17e-4,0.02475 3.17e-4,0.03216 0,0.0049 0,0.0058 0,0.0082 0,0.003 0,0.0049 0,0.0049 0,3.22e-4 0,0.002 0,0.002 0,0 0,0 0,0 0,0 0,0 0,0 0,0 0,0 0.05555,0 z" style="fill:#ac1b1b;stroke-width:0.32120103" />
   <g fill="#FFFFFF" transform="matrix(5.893909454345703,0,0,5.893909454345703,123.62376403808594,20.2499942779541)">
      <path d="M0.45 10.50L3.86 10.50L3.86 10.09C2.87 10.02 2.81 10.00 2.81 9.28L2.81 6.01C2.81 5.66 2.83 5.46 2.93 5.26C3.19 4.70 3.81 4.23 4.58 4.23C5.78 4.23 5.92 5.11 5.92 5.98L5.92 9.28C5.92 10.00 5.88 10.02 4.87 10.09L4.87 10.50L8.29 10.50L8.29 10.09C7.29 10.02 7.24 10.00 7.24 9.28L7.24 6.01C7.24 5.66 7.25 5.46 7.34 5.24C7.55 4.68 8.15 4.23 8.93 4.23C9.81 4.23 10.35 4.73 10.35 5.98L10.35 9.28C10.35 10.00 10.30 10.02 9.30 10.09L9.30 10.50L12.71 10.50L12.71 10.09C11.72 10.02 11.66 10.00 11.66 9.28L11.66 5.70C11.66 4.28 10.91 3.47 9.58 3.47C8.43 3.47 7.60 4.24 7.11 4.55C6.78 3.89 6.24 3.47 5.26 3.47C4.19 3.47 3.30 4.17 2.81 4.54L2.69 3.47L0.52 3.82L0.52 4.17L1.05 4.24C1.41 4.30 1.50 4.37 1.50 4.87L1.50 9.28C1.50 10.00 1.46 10.02 0.45 10.09ZM13.61 8.68C13.61 9.73 14.31 10.67 15.62 10.67C16.44 10.67 17.26 10.12 17.71 9.83C17.91 10.35 18.13 10.67 18.62 10.67C19.14 10.67 19.74 10.51 20.27 10.25L20.19 9.91C19.99 9.95 19.68 9.98 19.47 9.93C19.22 9.87 18.98 9.60 18.98 8.72L18.98 5.33C18.98 4.52 18.80 3.47 16.69 3.47C15.11 3.47 13.86 4.30 13.86 5.07C13.86 5.52 14.38 5.73 14.64 5.73C14.94 5.73 15.02 5.57 15.09 5.33C15.40 4.30 15.97 3.96 16.53 3.96C17.08 3.96 17.72 4.24 17.72 5.36L17.72 5.95C17.37 6.31 16.02 6.66 14.91 7.01C13.90 7.32 13.61 8.02 13.61 8.68ZM15.02 8.48C15.02 7.83 15.33 7.49 16.11 7.20C16.67 6.99 17.42 6.72 17.72 6.52L17.72 8.50C17.72 9.63 16.86 9.93 16.31 9.93C15.44 9.93 15.02 9.31 15.02 8.48ZM20.93 7.13C20.93 9.34 21.88 10.67 24.16 10.67C25.72 10.67 26.52 9.80 26.89 8.69L26.47 8.47C26.08 9.28 25.55 9.95 24.44 9.95C22.71 9.95 22.36 8.27 22.39 6.82L26.42 6.82C26.71 6.82 26.98 6.75 26.98 6.29C26.98 5.46 26.71 3.47 24.15 3.47C21.97 3.47 20.93 5.03 20.93 7.13ZM22.40 6.29C22.40 5.71 22.61 3.96 24.07 3.96C25.37 3.96 25.52 5.29 25.52 5.84C25.52 6.10 25.44 6.29 25.05 6.29ZM27.45 4.05C28.11 4.10 28.24 4.16 28.45 4.68C28.83 5.60 29.15 6.51 29.50 7.48L30.58 10.50L31.58 10.50L32.83 7.11C33.24 6.02 33.64 5.10 33.84 4.65C34.05 4.16 34.20 4.07 34.85 4.05L34.85 3.64L32.19 3.64L32.19 4.05L32.87 4.12C33.10 4.14 33.14 4.30 33.08 4.49C32.97 4.94 32.70 5.75 32.38 6.65L31.44 9.24L31.42 9.24L30.56 6.89C30.28 6.09 30.00 5.28 29.74 4.52C29.64 4.26 29.69 4.14 29.96 4.12L30.59 4.05L30.59 3.64L27.45 3.64ZM35.15 8.16L35.29 10.00C35.80 10.44 36.65 10.67 37.48 10.67C39.14 10.67 40.10 9.79 40.10 8.60C40.10 7.36 39.34 6.80 37.90 6.36C37.32 6.17 36.40 5.88 36.40 5.10C36.40 4.37 36.96 3.96 37.66 3.96C38.65 3.96 39.13 4.73 39.23 5.59L39.63 5.59L39.63 3.95C39.17 3.61 38.46 3.47 37.83 3.47C36.32 3.47 35.28 4.19 35.28 5.52C35.28 6.68 36.23 7.20 37.39 7.55C38.02 7.74 38.91 8.06 38.91 9.02C38.91 9.73 38.35 10.18 37.60 10.18C36.47 10.18 35.84 9.35 35.56 8.16ZM41.89 1.34C41.89 1.85 42.24 2.20 42.74 2.20C43.25 2.20 43.60 1.85 43.60 1.34C43.60 0.84 43.25 0.49 42.74 0.49C42.24 0.49 41.89 0.84 41.89 1.34ZM41.05 10.50L44.46 10.50L44.46 10.09C43.47 10.02 43.41 10.00 43.41 9.28L43.41 3.56L43.32 3.47L41.12 3.82L41.12 4.17L41.65 4.24C42.01 4.30 42.10 4.37 42.10 4.87L42.10 9.28C42.10 10.00 42.06 10.02 41.05 10.09Z" />
   </g>
</svg>
