<?xml version="1.0" encoding="UTF-8" standalone="no"?>
<svg
   xmlns:dc="http://purl.org/dc/elements/1.1/"
   xmlns:cc="http://creativecommons.org/ns#"
   xmlns:rdf="http://www.w3.org/1999/02/22-rdf-syntax-ns#"
   xmlns:svg="http://www.w3.org/2000/svg"
   xmlns="http://www.w3.org/2000/svg"
   xmlns:sodipodi="http://sodipodi.sourceforge.net/DTD/sodipodi-0.dtd"
   xmlns:inkscape="http://www.inkscape.org/namespaces/inkscape"
   inkscape:version="1.0 (4035a4fb49, 2020-05-01)"
   sodipodi:docname="maevsi_icon.svg"
   id="svg32"
   version="1.1"
   viewBox="0 0 200 200"
   height="200mm"
   width="200mm">
  <defs
     id="defs26" />
  <sodipodi:namedview
     inkscape:window-maximized="1"
     inkscape:window-y="27"
     inkscape:window-x="0"
     inkscape:window-height="1016"
     inkscape:window-width="1920"
     showgrid="false"
     inkscape:document-rotation="0"
     inkscape:current-layer="g142"
     inkscape:document-units="mm"
     inkscape:cy="534.57462"
     inkscape:cx="331.28034"
     inkscape:zoom="0.35"
     inkscape:pageshadow="2"
     inkscape:pageopacity="0.0"
     borderopacity="1.0"
     bordercolor="#666666"
     pagecolor="#ffffff"
     id="base" />
  <metadata
     id="metadata29">
    <rdf:RDF>
      <cc:Work
         rdf:about="">
        <dc:format>image/svg+xml</dc:format>
        <dc:type
           rdf:resource="http://purl.org/dc/dcmitype/StillImage" />
        <dc:title></dc:title>
      </cc:Work>
    </rdf:RDF>
  </metadata>
  <g
     id="layer1"
     inkscape:groupmode="layer"
     inkscape:label="Layer 1">
    <g
       transform="matrix(1.0583333,0,0,1.0583333,11.783683,3.7069293)"
       id="g142"
       style="fill:none">
      <path
         d="m 149.16601,128.32086 c -28.38176,-7.24427 -50.7837,2.39459 -65.957463,34.43418"
         stroke="#282655"
         stroke-width="24.2"
         stroke-linecap="round"
         id="path110" />
      <path
         style="stroke-width:1.21"
         fill-rule="evenodd"
         clip-rule="evenodd"
         d="m 160.89091,131.31319 c 1.65165,-6.47592 -2.25786,-13.06437 -8.73257,-14.71723 -16.19948,-4.13336 -32.02265,-3.751 -46.32485,3.38316 -14.20177,7.08334 -25.220151,19.98557 -33.560802,37.59712 -2.860198,6.04032 -0.282777,13.25434 5.756817,16.11478 6.039594,2.86044 13.254945,0.28314 16.114175,-5.75718 6.83287,-14.42804 14.60228,-22.36443 22.49148,-26.29935 7.78635,-3.8841 17.35624,-4.69843 29.53852,-1.58994 6.47592,1.65286 13.06437,-2.25665 14.71723,-8.73136 z"
         fill="#8ed300"
         id="path112" />
      <path
         d="m 148.59731,54.129594 c -19.44591,21.906445 -20.95478,46.021746 0.5687,74.191266"
         stroke="#f8431d"
         stroke-width="24.2"
         stroke-linecap="round"
         id="path114" />
      <path
         d="M 148.9349,53.958264 C 120.49506,60.969851 98.13063,51.388944 83.219679,19.226176"
         stroke="#4c9fff"
         stroke-width="24.2"
         stroke-linecap="round"
         id="path116" />
      <path
         d="M 18.157858,54.20776 C 46.598182,61.219347 68.342961,51.374972 83.254517,19.212204"
         stroke="#8ed300"
         stroke-width="24.2"
         stroke-linecap="round"
         id="path118" />
      <path
         d="m 18.15084,54.129594 c 19.445305,21.906445 20.990838,45.961246 -0.5324,74.130766"
         stroke="#f8431d"
         stroke-width="24.2"
         stroke-linecap="round"
         id="path120" />
      <path
         style="stroke-width:1.21"
         fill-rule="evenodd"
         clip-rule="evenodd"
         d="m 14.549517,116.58507 c -6.4750727,1.65165 -10.3845827,8.2401 -8.7320857,14.71602 1.652497,6.47471 8.2411887,10.38422 14.7162617,8.73136 12.190387,-3.11091 21.661783,-2.28448 29.349034,1.58026 7.804863,3.92282 15.51462,11.85316 22.366971,26.32234 2.203168,4.65245 6.989807,7.25032 11.832953,6.89095 -2.015739,0.14762 -4.096092,-0.20812 -6.053146,-1.13498 -6.039594,-2.86044 -8.617015,-10.07446 -5.756817,-16.11478 3.234209,-6.82924 6.870985,-12.95063 10.939973,-18.29883 -6.38033,-8.42644 -13.821225,-14.94471 -22.461714,-19.2874 -14.245814,-7.16078 -30.009573,-7.5383 -46.20143,-3.40494 z"
         fill="#4c9fff"
         id="path122" />
    </g>
  </g>
</svg>
