<svg xmlns="http://www.w3.org/2000/svg" width="24" height="24" fill="none"><rect width="24" height="24" fill="#36DB83" rx="12"/><path fill="#FAFAFC" d="M14.561 9.813a.75.75 0 1 1-1.499 0 .75.75 0 0 1 1.5 0m3.188.374a.56.56 0 0 1-.25.47l-.875.581v.825a5.07 5.07 0 0 1-5.063 5.062H7.436a.937.937 0 0 1-.73-1.523l.007-.009 3.91-4.694v-.857c0-1.67 1.34-3.034 2.986-3.042h.015a3 3 0 0 1 2.84 2.03l1.035.689a.56.56 0 0 1 .25.469m-1.576 0-.502-.334a.56.56 0 0 1-.234-.328 1.875 1.875 0 0 0-1.813-1.4h-.009c-1.029.005-1.866.865-1.866 1.917v1.06c0 .132-.046.26-.13.361L7.839 16h.96l3.268-3.922a.562.562 0 1 1 .864.72L10.263 16h1.298a3.94 3.94 0 0 0 3.938-3.937v-1.126a.56.56 0 0 1 .25-.468z"/></svg>