<svg width="16" height="16" viewBox="0 0 24 24" fill="currentColor" xmlns="http://www.w3.org/2000/svg">
<path d="M12.175 8.99999H1C0.716667 8.99999 0.479167 8.90415 0.2875 8.71249C0.0958333 8.52082 0 8.28332 0 7.99999C0 7.71665 0.0958333 7.47915 0.2875 7.28749C0.479167 7.09582 0.716667 6.99999 1 6.99999H12.175L7.275 2.09999C7.075 1.89999 6.97917 1.66665 6.9875 1.39999C6.99583 1.13332 7.1 0.899987 7.3 0.699987C7.5 0.516654 7.73333 0.420821 8 0.412487C8.26667 0.404154 8.5 0.499987 8.7 0.699987L15.3 7.29999C15.4 7.39999 15.4708 7.50832 15.5125 7.62499C15.5542 7.74165 15.575 7.86665 15.575 7.99999C15.575 8.13332 15.5542 8.25832 15.5125 8.37499C15.4708 8.49165 15.4 8.59999 15.3 8.69999L8.7 15.3C8.51667 15.4833 8.2875 15.575 8.0125 15.575C7.7375 15.575 7.5 15.4833 7.3 15.3C7.1 15.1 7 14.8625 7 14.5875C7 14.3125 7.1 14.075 7.3 13.875L12.175 8.99999Z" fill="currentColor"
/>
</svg>
