<svg xmlns="http://www.w3.org/2000/svg" width="24" height="24" fill="none"><path fill="currentColor" d="M12.031 18.805q1.65 0 2.825-1.175t1.175-2.825v-4q0-1.65-1.175-2.825t-2.825-1.175T9.206 7.98t-1.175 2.825v4q0 1.65 1.175 2.825t2.825 1.175m-2-3h4v-2h-4zm0-4h4v-2h-4zm2 9a5.93 5.93 0 0 1-3.012-.8 5.84 5.84 0 0 1-2.188-2.2h-2.8v-2h2.1a8 8 0 0 1-.087-1 40 40 0 0 1-.013-1h-2v-2h2q0-.5.013-1a8 8 0 0 1 .087-1h-2.1v-2h2.8A8 8 0 0 1 7.62 6.73q.437-.5 1.012-.875l-1.6-1.65 1.4-1.4 2.15 2.15a4.63 4.63 0 0 1 2.85 0l2.2-2.15 1.4 1.4-1.65 1.65a5.76 5.76 0 0 1 1.85 1.95h2.8v2h-2.1q.075.5.088 1t.012 1h2v2h-2q0 .5-.012 1a8 8 0 0 1-.088 1h2.1v2h-2.8a5.84 5.84 0 0 1-2.187 2.2q-1.388.8-3.013.8"/></svg>