<svg xmlns="http://www.w3.org/2000/svg" width="24" height="24" fill="none"><path fill="currentColor" d="M5 23a.97.97 0 0 1-.713-.288A.97.97 0 0 1 4 22q0-.424.287-.712A.97.97 0 0 1 5 21h14q.424 0 .712.288.288.287.288.712 0 .424-.288.712A.97.97 0 0 1 19 23zM5 3a.97.97 0 0 1-.713-.288A.97.97 0 0 1 4 2q0-.424.287-.712A.97.97 0 0 1 5 1h14q.424 0 .712.288Q20 1.575 20 2q0 .424-.288.712A.97.97 0 0 1 19 3zm7 10q1.25 0 2.125-.875A2.9 2.9 0 0 0 15 10q0-1.25-.875-2.125A2.9 2.9 0 0 0 12 7q-1.25 0-2.125.875A2.9 2.9 0 0 0 9 10q0 1.25.875 2.125A2.9 2.9 0 0 0 12 13m-8 7q-.824 0-1.412-.587A1.93 1.93 0 0 1 2 18V6q0-.824.587-1.412A1.93 1.93 0 0 1 4 4h16q.824 0 1.413.588Q22 5.175 22 6v12q0 .824-.587 1.413A1.93 1.93 0 0 1 20 20zm1.75-2a8.1 8.1 0 0 1 2.725-2.2q1.6-.8 3.525-.8t3.525.8A8.1 8.1 0 0 1 18.25 18H20V6H4v12zm2.95 0h6.6a5.5 5.5 0 0 0-1.562-.75A6 6 0 0 0 12 17q-.9 0-1.738.25A5.5 5.5 0 0 0 8.7 18m3.3-7a.97.97 0 0 1-.713-.287A.97.97 0 0 1 11 10q0-.424.287-.713A.97.97 0 0 1 12 9q.424 0 .713.287Q13 9.576 13 10t-.287.713A.97.97 0 0 1 12 11"/></svg>