<svg xmlns="http://www.w3.org/2000/svg" width="24" height="24" fill="none"><path fill="currentColor" d="M12.023 22.047q-.824 0-1.412-.588a1.93 1.93 0 0 1-.588-1.412h4q0 .825-.587 1.412a1.93 1.93 0 0 1-1.413.588m-4-3v-2h8v2zm.25-3a7.66 7.66 0 0 1-2.737-2.75 7.3 7.3 0 0 1-1.013-3.75q0-3.124 2.188-5.313 2.188-2.187 5.312-2.187 3.126 0 5.313 2.187 2.187 2.189 2.187 5.313 0 2.025-1.012 3.75a7.66 7.66 0 0 1-2.738 2.75zm.6-2h6.3a5.55 5.55 0 0 0 1.738-1.975 5.4 5.4 0 0 0 .612-2.525q0-2.3-1.6-3.9-1.599-1.6-3.9-1.6-2.3 0-3.9 1.6t-1.6 3.9q0 1.35.613 2.525a5.55 5.55 0 0 0 1.737 1.975"/></svg>