<svg xmlns="http://www.w3.org/2000/svg" width="24" height="24" fill="none"><path fill="currentColor" d="M11.664 21.957a9.7 9.7 0 0 1-3.875-.788 10.1 10.1 0 0 1-3.187-2.15 10.1 10.1 0 0 1-2.15-3.187 9.7 9.7 0 0 1-.788-3.875q0-2.075.788-3.887a10.2 10.2 0 0 1 2.15-3.175 10.1 10.1 0 0 1 3.187-2.15 9.7 9.7 0 0 1 3.875-.788 9.65 9.65 0 0 1 3.888.788 10.2 10.2 0 0 1 3.175 2.15 10.2 10.2 0 0 1 2.15 3.175 9.65 9.65 0 0 1 .787 3.887 9.7 9.7 0 0 1-.787 3.875 10.1 10.1 0 0 1-2.15 3.188 10.2 10.2 0 0 1-3.175 2.15 9.65 9.65 0 0 1-3.888.787m0-2.05q.65-.9 1.125-1.875t.775-2.075h-3.8q.3 1.1.775 2.075t1.125 1.875m-2.6-.4q-.45-.824-.787-1.713a15 15 0 0 1-.563-1.837h-2.95a8.3 8.3 0 0 0 1.813 2.175 7.2 7.2 0 0 0 2.487 1.375m5.2 0a7.2 7.2 0 0 0 2.488-1.375 8.3 8.3 0 0 0 1.812-2.175h-2.95q-.225.95-.562 1.837a14 14 0 0 1-.788 1.713m-10.35-5.55h3.4a13 13 0 0 1-.15-2 13 13 0 0 1 .15-2h-3.4a8 8 0 0 0-.25 2 8 8 0 0 0 .25 2m5.4 0h4.7q.075-.5.113-.988.037-.486.037-1.012a13 13 0 0 0-.15-2h-4.7q-.075.5-.112.987-.038.488-.038 1.013a13 13 0 0 0 .15 2m6.7 0h3.4a8 8 0 0 0 .25-2 8 8 0 0 0-.25-2h-3.4q.075.5.113.987.037.488.037 1.013a13 13 0 0 1-.15 2m-.4-6h2.95a8.3 8.3 0 0 0-1.812-2.175 7.2 7.2 0 0 0-2.488-1.375q.45.824.788 1.713.337.887.562 1.837m-5.85 0h3.8q-.3-1.1-.775-2.075a12.7 12.7 0 0 0-1.125-1.875q-.65.9-1.125 1.875t-.775 2.075m-5 0h2.95q.225-.95.563-1.837.337-.888.787-1.713-1.4.45-2.487 1.375a8.3 8.3 0 0 0-1.813 2.175"/></svg>