<svg xmlns="http://www.w3.org/2000/svg" width="24" height="24" fill="none"><path fill="currentColor" d="M1.902 21.102v-2h9V7.927a2.92 2.92 0 0 1-1.825-1.825H5.902l3 7q0 1.25-1.025 2.125t-2.475.875-2.475-.875-1.025-2.125l3-7h-2v-2h6.175a2.9 2.9 0 0 1 1.075-1.438 2.9 2.9 0 0 1 1.75-.562q.976 0 1.75.562a2.9 2.9 0 0 1 1.075 1.438h6.175v2h-2l3 7q0 1.25-1.025 2.125t-2.475.875q-1.449 0-2.475-.875-1.025-.876-1.025-2.125l3-7h-3.175a2.92 2.92 0 0 1-1.825 1.825v11.175h9v2zm14.625-8h3.75l-1.875-4.35zm-13 0h3.75l-1.875-4.35zm8.375-7q.426 0 .713-.288a.97.97 0 0 0 .287-.712.97.97 0 0 0-.287-.713.97.97 0 0 0-.713-.287.97.97 0 0 0-.712.287.97.97 0 0 0-.288.713q0 .424.288.712t.712.288"/></svg>