<svg xmlns="http://www.w3.org/2000/svg" width="24" height="24" fill="none"><path fill="currentColor" stroke="currentColor" stroke-width=".025" d="m6.714 19.08-1.94-3.456h1.42l.997 1.993-.014.007h2.338v-1.025H7.81l-.996-1.993.013-.007H4.21l-1.421-2.493a3 3 0 0 1-.087-.248 1 1 0 0 1-.037-.247q0-.046.03-.172.031-.123.094-.323l1.42-2.492h2.593v.015l.012-.022.996-1.993h1.705V5.599H7.202v-.016l-.01.023-.997 1.993H4.774l1.94-3.457a.9.9 0 0 1 .357-.382 1 1 0 0 1 .506-.136h2.425q.42 0 .704.284.284.283.284.703V8.6H9.502v-.005l-.008.008-1 1-.022.022h2.518V12.6H8.81l-.996-1.993.013-.007H5.502v-.005l-.008.008-1 1-.022.022h2.723l.996 1.993-.014.007h2.813v4.987q0 .42-.284.704a.96.96 0 0 1-.704.284H7.577a1 1 0 0 1-.506-.136.9.9 0 0 1-.357-.382Zm5.3-.469v-4.987h2.788v.015l.011-.022.997-1.993h2.722l-.02-.022-1-1 .003-.003h-2.313v-.016l-.01.023-.997 1.993h-2.18V9.624h2.517l-.02-.022-1-1 .003-.003h-1.5V4.61q0-.42.284-.703a.96.96 0 0 1 .703-.284h2.425q.271 0 .507.136.234.135.357.382l1.94 3.457h-1.42l-.998-1.993.014-.007H13.49v1.025h1.705l.996 1.993-.014.007h2.618l1.421 2.493q.05.123.087.248a1 1 0 0 1 .037.246 1 1 0 0 1-.031.172q-.03.124-.093.323l-1.42 2.493h-2.594v-.016l-.01.023-.997 1.993H13.49v1.025h2.312v.015l.011-.022.997-1.993h1.421l-1.94 3.456a.9.9 0 0 1-.357.383 1 1 0 0 1-.507.136h-2.425a.96.96 0 0 1-.703-.284.96.96 0 0 1-.284-.704Z"/></svg>