<svg width="24" height="24" viewBox="0 0 24 24" fill="none" xmlns="http://www.w3.org/2000/svg">
<mask id="mask0_4520_27207" style="mask-type:alpha" maskUnits="userSpaceOnUse" x="-1" y="-1" width="25" height="25">
<rect x="-0.496094" y="-0.388672" width="24" height="24" fill="#D9D9D9"/>
</mask>
<g mask="url(#mask0_4520_27207)">
<path d="M10.5039 20.5613C8.48724 20.3113 6.81641 19.4322 5.49141 17.9238C4.16641 16.4155 3.50391 14.6447 3.50391 12.6113C3.50391 11.5113 3.72057 10.4572 4.15391 9.44883C4.58724 8.4405 5.20391 7.56133 6.00391 6.81133L7.42891 8.23633C6.79557 8.80299 6.31641 9.46133 5.99141 10.2113C5.66641 10.9613 5.50391 11.7613 5.50391 12.6113C5.50391 14.078 5.97057 15.3738 6.90391 16.4988C7.83724 17.6238 9.03724 18.3113 10.5039 18.5613V20.5613ZM12.5039 20.5613V18.5613C13.9539 18.2947 15.1497 17.603 16.0914 16.4863C17.0331 15.3697 17.5039 14.078 17.5039 12.6113C17.5039 10.9447 16.9206 9.528 15.7539 8.36133C14.5872 7.19466 13.1706 6.61133 11.5039 6.61133H11.4289L12.5289 7.71133L11.1289 9.11133L7.62891 5.61133L11.1289 2.11133L12.5289 3.51133L11.4289 4.61133H11.5039C13.7372 4.61133 15.6289 5.38633 17.1789 6.93633C18.7289 8.48633 19.5039 10.378 19.5039 12.6113C19.5039 14.628 18.8414 16.3905 17.5164 17.8988C16.1914 19.4072 14.5206 20.2947 12.5039 20.5613Z" fill="#FAFAFC"/>
</g>
</svg>
