<svg xmlns="http://www.w3.org/2000/svg" width="24" height="24" fill="none"><path fill="currentColor" stroke="currentColor" stroke-width=".025" d="m11.42 6.62 1.091 1.091-1.382 1.383L7.647 5.61l3.482-3.482 1.382 1.382-1.09 1.091-.022.022h.105q3.345 0 5.666 2.321t2.321 5.666q0 3.02-1.984 5.28-1.98 2.253-4.99 2.656v-1.975q2.172-.403 3.584-2.078 1.415-1.678 1.415-3.883 0-2.505-1.753-4.259Q14.008 6.6 11.503 6.6H11.4zm-.929 11.952v1.975q-3.01-.378-4.99-2.631-1.985-2.259-1.985-5.305 0-1.647.65-3.157a7.8 7.8 0 0 1 1.838-2.625L7.41 8.236a5.65 5.65 0 0 0-1.431 1.97 6 6 0 0 0-.489 2.405q0 2.205 1.403 3.896 1.4 1.686 3.597 2.065Z"/></svg>