<svg width="17" height="19" viewBox="0 0 24 24" fill="none" xmlns="http://www.w3.org/2000/svg">
<path d="M7.50391 18.5613C5.48724 18.3113 3.81641 17.4322 2.49141 15.9238C1.16641 14.4155 0.503906 12.6447 0.503906 10.6113C0.503906 9.51133 0.720573 8.45716 1.15391 7.44883C1.58724 6.4405 2.20391 5.56133 3.00391 4.81133L4.42891 6.23633C3.79557 6.80299 3.31641 7.46133 2.99141 8.21133C2.66641 8.96133 2.50391 9.76133 2.50391 10.6113C2.50391 12.078 2.97057 13.3738 3.90391 14.4988C4.83724 15.6238 6.03724 16.3113 7.50391 16.5613V18.5613ZM9.50391 18.5613V16.5613C10.9539 16.2947 12.1497 15.603 13.0914 14.4863C14.0331 13.3697 14.5039 12.078 14.5039 10.6113C14.5039 8.94466 13.9206 7.528 12.7539 6.36133C11.5872 5.19466 10.1706 4.61133 8.50391 4.61133H8.42891L9.52891 5.71133L8.12891 7.11133L4.62891 3.61133L8.12891 0.111328L9.52891 1.51133L8.42891 2.61133H8.50391C10.7372 2.61133 12.6289 3.38633 14.1789 4.93633C15.7289 6.48633 16.5039 8.37799 16.5039 10.6113C16.5039 12.628 15.8414 14.3905 14.5164 15.8988C13.1914 17.4072 11.5206 18.2947 9.50391 18.5613Z" fill="currentColor"/>
</svg>
