<svg xmlns="http://www.w3.org/2000/svg" width="32" height="32" fill="none" viewBox="0 0 32 32"><path fill="#8ED300" d="M6.66667 1.33337H2.66667C2.31304 1.33337 1.9739 1.47385 1.72386 1.7239C1.47381 1.97395 1.33333 2.31309 1.33333 2.66671V29.3334C1.33333 29.687 1.47381 30.0261 1.72386 30.2762C1.9739 30.5262 2.31304 30.6667 2.66667 30.6667H6.66667V1.33337Z"/><path fill="#F8431D" d="M9.33333 30.6667H22.6667V1.33337H9.33333V30.6667ZM16 25.3334C15.6464 25.3334 15.3072 25.1929 15.0572 24.9429C14.8071 24.6928 14.6667 24.3537 14.6667 24C14.6667 23.6464 14.8071 23.3073 15.0572 23.0572C15.3072 22.8072 15.6464 22.6667 16 22.6667C16.3536 22.6667 16.6928 22.8072 16.9428 23.0572C17.1929 23.3073 17.3333 23.6464 17.3333 24C17.3333 24.3537 17.1929 24.6928 16.9428 24.9429C16.6928 25.1929 16.3536 25.3334 16 25.3334ZM16 6.66671C16.3536 6.66671 16.6928 6.80718 16.9428 7.05723C17.1929 7.30728 17.3333 7.64642 17.3333 8.00004C17.3333 8.35366 17.1929 8.6928 16.9428 8.94285C16.6928 9.1929 16.3536 9.33337 16 9.33337C15.6464 9.33337 15.3072 9.1929 15.0572 8.94285C14.8071 8.6928 14.6667 8.35366 14.6667 8.00004C14.6667 7.64642 14.8071 7.30728 15.0572 7.05723C15.3072 6.80718 15.6464 6.66671 16 6.66671ZM16 14.6667C16.3536 14.6667 16.6928 14.8072 16.9428 15.0572C17.1929 15.3073 17.3333 15.6464 17.3333 16C17.3333 16.3537 17.1929 16.6928 16.9428 16.9429C16.6928 17.1929 16.3536 17.3334 16 17.3334C15.6464 17.3334 15.3072 17.1929 15.0572 16.9429C14.8071 16.6928 14.6667 16.3537 14.6667 16C14.6667 15.6464 14.8071 15.3073 15.0572 15.0572C15.3072 14.8072 15.6464 14.6667 16 14.6667Z"/><path fill="#4C9FFF" d="M29.3333 1.33337H25.3333V30.6667H29.3333C29.687 30.6667 30.0261 30.5262 30.2761 30.2762C30.5262 30.0261 30.6667 29.687 30.6667 29.3334V2.66671C30.6667 2.31309 30.5262 1.97395 30.2761 1.7239C30.0261 1.47385 29.687 1.33337 29.3333 1.33337Z"/></svg>