<svg xmlns="http://www.w3.org/2000/svg" width="32" height="32" fill="none" viewBox="0 0 32 32"><path fill="#4C9FFF" d="M30.6667 8.00004V2.66671C30.6667 2.31309 30.5262 1.97395 30.2762 1.7239C30.0261 1.47385 29.687 1.33337 29.3333 1.33337H2.66668C2.31305 1.33337 1.97392 1.47385 1.72387 1.7239C1.47382 1.97395 1.33334 2.31309 1.33334 2.66671V8.00004H30.6667Z"/><path fill="#8ED300" d="M1.33334 10.6667V29.3334C1.33334 29.687 1.47382 30.0262 1.72387 30.2762C1.97392 30.5263 2.31305 30.6667 2.66668 30.6667H9.33334V10.6667H1.33334Z"/><path fill="#F8431D" d="M12 30.6667H29.3333C29.687 30.6667 30.0261 30.5263 30.2761 30.2762C30.5262 30.0262 30.6667 29.687 30.6667 29.3334V10.6667H12V30.6667Z"/></svg>