<svg xmlns="http://www.w3.org/2000/svg" width="3000" height="750" fill="none"><g clip-path="url(#a)"><path fill="#70E884" fill-rule="evenodd" d="m380.034 331.632 17.168 79.642c3.401 15.776 16.715 27.483 32.809 28.848l83.559 7.088 8.019 29.656a18.34 18.34 0 0 1-2.753 15.41l-84.664 119.188a18.38 18.38 0 0 1-20.547 6.868L282.01 576.519a18.36 18.36 0 0 1-11.024-9.611L212.78 444.569a18.34 18.34 0 0 1 4.386-21.597l108.073-95.988z" clip-rule="evenodd"/><path fill="#FF3167" fill-rule="evenodd" d="M576.896 253.115a18.37 18.37 0 0 0-18.103-12.8l-103.532 3.332-50.874 71.748 69.088 5.859c15.396 1.306 28.33 12.098 32.36 27.002l20.662 76.404 76.198-40.355c7.84-4.152 11.589-13.31 8.908-21.761z" clip-rule="evenodd"/><path fill="#0467F1" fill-rule="evenodd" d="M278.209 143.499c2.787-8.27 11.016-13.436 19.682-12.357l108.27 13.483a18.36 18.36 0 0 1 15.541 13.729l18.763 74.41-57.307 80.82-57.776-5.002-71.79-51.279a18.34 18.34 0 0 1-6.726-20.787z" clip-rule="evenodd"/><path fill="#FFE504" fill-rule="evenodd" d="m415.16 407.41-15.959-74.035 72.718 6.168a18.365 18.365 0 0 1 16.18 13.5l20.367 75.314-76.902-6.523a18.365 18.365 0 0 1-16.404-14.424" clip-rule="evenodd"/><path fill="#1D1D1B" d="M1069.46 225.992h-46.8c-7.95 0-12.64 3.593-14.51 10.774l-51.951 188.506h-.936l-51.942-188.506c-1.878-7.181-6.553-10.774-14.512-10.774h-65.26l4.409 14.316s0 .027.009.046l84.241 273.335c2.337 6.731 7.022 10.324 14.512 10.324h55.225c7.486 0 12.166-3.588 14.503-10.324l84.242-273.335c2.35-8.975-1.87-14.362-11.23-14.362m118.86 0h-59.9V511.44c0 8.081 4.68 12.568 13.1 12.568h46.8c8.43 0 13.11-4.487 13.11-12.568V238.555c0-8.08-4.68-12.568-13.11-12.568zm247.94 145.865v-.899c26.21-12.119 37.91-33.662 37.91-65.975 0-55.204-33.23-78.991-110.92-78.991h-101.09V511.44c0 8.081 4.68 12.568 13.11 12.568h96.4c77.69 0 110.92-24.236 110.92-80.336 0-36.805-14.04-60.146-46.33-71.815m-101.09-84.829h28.54c25.74 0 37.45 8.526 37.45 27.825 0 19.3-11.7 28.275-37.45 28.275h-28.54zm36.04 175.939h-36.04v-59.692h36.04c25.73 0 37.44 9.424 37.44 29.623 0 20.644-11.71 30.069-37.44 30.069m613.97-236.975h-211.54v48.473c0 8.08 4.68 12.568 13.11 12.568h62.71v224.412c0 8.08 4.68 12.568 13.1 12.568h46.8c8.42 0 13.1-4.488 13.1-12.568V287.033h62.71c8.43 0 13.11-4.488 13.11-12.568V238.56c0-8.081-4.68-12.568-13.1-12.568m281.76 0h-53.35c-7.49 0-12.16 2.693-15.44 8.975l-46.8 91.56h-.94l-46.8-91.56c-3.27-6.282-7.95-8.975-15.45-8.975h-73.85l8.24 14.614c.04.069.05.129.09.197l12.24 21.654 78.09 138.129v110.859c0 8.08 4.68 12.568 13.1 12.568h46.8c8.42 0 13.1-4.488 13.1-12.568v-110.41l90.33-160.227c4.69-8.525.94-14.816-9.36-14.816m144.98 0h-101.55V511.44c0 8.081 4.68 12.568 13.1 12.568h46.8c8.42 0 13.1-4.487 13.1-12.568v-87.967h28.55c80.5 0 117.47-30.968 117.47-99.19 0-67.323-36.97-98.291-117.47-98.291m-.47 136.44h-28.08v-75.404h28.08c29.95 0 43.99 11.669 43.99 37.7s-14.04 37.704-43.99 37.704M1536.65 403h136.14c7.21 0 11.21-4.477 11.21-12.538v-34.924c0-8.056-4-12.538-11.21-12.538H1527v48.762c0 6.207 4.32 11.238 9.65 11.238m181.7-177.008H1527.4v48.473c0 8.076 4.68 12.564 13.11 12.564h177.84c8.42 0 13.1-4.488 13.1-12.564v-35.91c0-8.076-4.68-12.563-13.1-12.563m0 236.975H1527.4v48.474c0 8.075 4.68 12.563 13.11 12.563h177.84c8.42 0 13.1-4.488 13.1-12.563v-35.906c0-8.08-4.68-12.568-13.1-12.568M2581.65 403h136.14c7.21 0 11.21-4.477 11.21-12.538v-34.924c0-8.056-4-12.538-11.21-12.538H2572v48.762c0 6.207 4.32 11.238 9.65 11.238m181.7-177.008h-190.94v48.473c0 8.076 4.68 12.564 13.1 12.564h177.84c8.42 0 13.1-4.488 13.1-12.564v-35.91c0-8.076-4.68-12.563-13.1-12.563m0 236.975h-190.94v48.474c0 8.075 4.68 12.563 13.1 12.563h177.84c8.42 0 13.1-4.488 13.1-12.563v-35.906c0-8.08-4.68-12.568-13.1-12.568"/></g><defs><clipPath id="a"><path fill="#fff" d="M0 0h3000v750H0z"/></clipPath></defs></svg>