<svg data-v-d3f97b9e="" xmlns="http://www.w3.org/2000/svg" viewBox="0 0 386 107"><!----><!----><!----><g data-v-d3f97b9e="" id="094478bf-2793-4030-9d88-f593362cff4f" fill="#000000" transform="matrix(5.893909454345703,0,0,5.893909454345703,123.62376403808594,20.2499942779541)"><path d="M0.45 10.50L3.86 10.50L3.86 10.09C2.87 10.02 2.81 10.00 2.81 9.28L2.81 6.01C2.81 5.66 2.83 5.46 2.93 5.26C3.19 4.70 3.81 4.23 4.58 4.23C5.78 4.23 5.92 5.11 5.92 5.98L5.92 9.28C5.92 10.00 5.88 10.02 4.87 10.09L4.87 10.50L8.29 10.50L8.29 10.09C7.29 10.02 7.24 10.00 7.24 9.28L7.24 6.01C7.24 5.66 7.25 5.46 7.34 5.24C7.55 4.68 8.15 4.23 8.93 4.23C9.81 4.23 10.35 4.73 10.35 5.98L10.35 9.28C10.35 10.00 10.30 10.02 9.30 10.09L9.30 10.50L12.71 10.50L12.71 10.09C11.72 10.02 11.66 10.00 11.66 9.28L11.66 5.70C11.66 4.28 10.91 3.47 9.58 3.47C8.43 3.47 7.60 4.24 7.11 4.55C6.78 3.89 6.24 3.47 5.26 3.47C4.19 3.47 3.30 4.17 2.81 4.54L2.69 3.47L0.52 3.82L0.52 4.17L1.05 4.24C1.41 4.30 1.50 4.37 1.50 4.87L1.50 9.28C1.50 10.00 1.46 10.02 0.45 10.09ZM13.61 8.68C13.61 9.73 14.31 10.67 15.62 10.67C16.44 10.67 17.26 10.12 17.71 9.83C17.91 10.35 18.13 10.67 18.62 10.67C19.14 10.67 19.74 10.51 20.27 10.25L20.19 9.91C19.99 9.95 19.68 9.98 19.47 9.93C19.22 9.87 18.98 9.60 18.98 8.72L18.98 5.33C18.98 4.52 18.80 3.47 16.69 3.47C15.11 3.47 13.86 4.30 13.86 5.07C13.86 5.52 14.38 5.73 14.64 5.73C14.94 5.73 15.02 5.57 15.09 5.33C15.40 4.30 15.97 3.96 16.53 3.96C17.08 3.96 17.72 4.24 17.72 5.36L17.72 5.95C17.37 6.31 16.02 6.66 14.91 7.01C13.90 7.32 13.61 8.02 13.61 8.68ZM15.02 8.48C15.02 7.83 15.33 7.49 16.11 7.20C16.67 6.99 17.42 6.72 17.72 6.52L17.72 8.50C17.72 9.63 16.86 9.93 16.31 9.93C15.44 9.93 15.02 9.31 15.02 8.48ZM20.93 7.13C20.93 9.34 21.88 10.67 24.16 10.67C25.72 10.67 26.52 9.80 26.89 8.69L26.47 8.47C26.08 9.28 25.55 9.95 24.44 9.95C22.71 9.95 22.36 8.27 22.39 6.82L26.42 6.82C26.71 6.82 26.98 6.75 26.98 6.29C26.98 5.46 26.71 3.47 24.15 3.47C21.97 3.47 20.93 5.03 20.93 7.13ZM22.40 6.29C22.40 5.71 22.61 3.96 24.07 3.96C25.37 3.96 25.52 5.29 25.52 5.84C25.52 6.10 25.44 6.29 25.05 6.29ZM27.45 4.05C28.11 4.10 28.24 4.16 28.45 4.68C28.83 5.60 29.15 6.51 29.50 7.48L30.58 10.50L31.58 10.50L32.83 7.11C33.24 6.02 33.64 5.10 33.84 4.65C34.05 4.16 34.20 4.07 34.85 4.05L34.85 3.64L32.19 3.64L32.19 4.05L32.87 4.12C33.10 4.14 33.14 4.30 33.08 4.49C32.97 4.94 32.70 5.75 32.38 6.65L31.44 9.24L31.42 9.24L30.56 6.89C30.28 6.09 30.00 5.28 29.74 4.52C29.64 4.26 29.69 4.14 29.96 4.12L30.59 4.05L30.59 3.64L27.45 3.64ZM35.15 8.16L35.29 10.00C35.80 10.44 36.65 10.67 37.48 10.67C39.14 10.67 40.10 9.79 40.10 8.60C40.10 7.36 39.34 6.80 37.90 6.36C37.32 6.17 36.40 5.88 36.40 5.10C36.40 4.37 36.96 3.96 37.66 3.96C38.65 3.96 39.13 4.73 39.23 5.59L39.63 5.59L39.63 3.95C39.17 3.61 38.46 3.47 37.83 3.47C36.32 3.47 35.28 4.19 35.28 5.52C35.28 6.68 36.23 7.20 37.39 7.55C38.02 7.74 38.91 8.06 38.91 9.02C38.91 9.73 38.35 10.18 37.60 10.18C36.47 10.18 35.84 9.35 35.56 8.16ZM41.89 1.34C41.89 1.85 42.24 2.20 42.74 2.20C43.25 2.20 43.60 1.85 43.60 1.34C43.60 0.84 43.25 0.49 42.74 0.49C42.24 0.49 41.89 0.84 41.89 1.34ZM41.05 10.50L44.46 10.50L44.46 10.09C43.47 10.02 43.41 10.00 43.41 9.28L43.41 3.56L43.32 3.47L41.12 3.82L41.12 4.17L41.65 4.24C42.01 4.30 42.10 4.37 42.10 4.87L42.10 9.28C42.10 10.00 42.06 10.02 41.05 10.09Z"></path></g><linearGradient data-v-d3f97b9e="" gradientTransform="rotate(25)" id="83752e09-d824-4abf-90aa-b76be82a51f2" x1="0%" y1="0%" x2="100%" y2="0%"><stop data-v-d3f97b9e="" offset="0%" style="stop-color: rgb(0, 21, 214); stop-opacity: 1;"></stop><stop data-v-d3f97b9e="" offset="100%" style="stop-color: rgb(9, 137, 251); stop-opacity: 1;"></stop></linearGradient><g data-v-d3f97b9e="" id="08b0d943-cf8e-4281-ae65-42361475c02a" transform="matrix(1.0866668224334717,0,0,1.0866668224334717,-0.2333471179008484,-0.2333471179008484)" stroke="none" fill="url(#83752e09-d824-4abf-90aa-b76be82a51f2)"><path d="M68.4 35.9l5.6-5.6c3.5 1.7 7.7 1.1 10.6-1.8 3.6-3.6 3.6-9.5 0-13.1-3.6-3.6-9.5-3.6-13.1 0-2.8 2.8-3.4 7.1-1.8 10.5L64 31.5c1.7 1.3 3.1 2.7 4.4 4.4zm7.2-16.3c1.3-1.3 3.4-1.3 4.7 0 1.3 1.3 1.3 3.4 0 4.7a3.32 3.32 0 0 1-4.7 0 3.32 3.32 0 0 1 0-4.7zM50 26.8c1.1 0 2.1.1 3.1.2v-7.9c3.6-1.3 6.1-4.7 6.1-8.7 0-5.1-4.2-9.3-9.3-9.3-5.1 0-9.3 4.2-9.3 9.3 0 4.1 2.6 7.5 6.3 8.8V27c1.1-.1 2.1-.2 3.1-.2zm-3.4-16.4C46.6 8.5 48.1 7 50 7s3.4 1.5 3.4 3.4-1.5 3.4-3.4 3.4c-1.9-.1-3.4-1.6-3.4-3.4zM98.9 50c0-5.1-4.2-9.3-9.3-9.3-4 0-7.4 2.6-8.7 6.1H73c.1 1 .2 2.1.2 3.1s-.1 2-.2 3h7.8c1.3 3.6 4.7 6.3 8.8 6.3 5.2.1 9.3-4.1 9.3-9.2zm-12.6 0c0-1.9 1.5-3.4 3.4-3.4s3.4 1.5 3.4 3.4-1.5 3.4-3.4 3.4-3.4-1.5-3.4-3.4zM26 30.3l5.6 5.6c1.3-1.6 2.7-3.1 4.4-4.4l-5.6-5.6c1.6-3.4 1-7.7-1.8-10.5-3.6-3.6-9.5-3.6-13.1 0-3.6 3.6-3.6 9.5 0 13.1 2.8 2.9 7.1 3.5 10.5 1.8zm-6.4-10.7c1.3-1.3 3.4-1.3 4.7 0 1.3 1.3 1.3 3.4 0 4.7a3.32 3.32 0 0 1-4.7 0 3.32 3.32 0 0 1 0-4.7zm51.9 65c3.6 3.6 9.5 3.6 13.1 0 3.6-3.6 3.6-9.5 0-13.1-2.8-2.8-7.1-3.4-10.5-1.8L68.5 64c-1.3 1.6-2.7 3.1-4.4 4.4l5.6 5.6c-1.7 3.4-1.1 7.7 1.8 10.6zm4.1-9c1.3-1.3 3.4-1.3 4.7 0 1.3 1.3 1.3 3.4 0 4.7a3.32 3.32 0 0 1-4.7 0c-1.3-1.2-1.3-3.3 0-4.7zM10.4 59.3c4.1 0 7.5-2.6 8.8-6.3H27c-.1-1-.2-2-.2-3 0-1.1.1-2.1.2-3.1h-7.9a9.21 9.21 0 0 0-8.7-6.1c-5.1 0-9.3 4.2-9.3 9.3 0 5 4.1 9.2 9.3 9.2zm0-12.7c1.9 0 3.4 1.5 3.4 3.4s-1.5 3.4-3.4 3.4S7 51.9 7 50s1.5-3.4 3.4-3.4zm42.7 34.3V73c-1 .1-2.1.2-3.1.2s-2-.1-3-.2v7.8c-3.6 1.3-6.3 4.7-6.3 8.8 0 5.1 4.2 9.3 9.3 9.3 5.1 0 9.3-4.2 9.3-9.3 0-4-2.6-7.4-6.2-8.7zM50 93c-1.9 0-3.4-1.5-3.4-3.4s1.5-3.4 3.4-3.4 3.4 1.5 3.4 3.4S51.9 93 50 93zM31.5 64l-5.6 5.6c-3.4-1.6-7.7-1-10.5 1.8-3.6 3.6-3.6 9.5 0 13.1 3.6 3.6 9.5 3.6 13.1 0 2.9-2.9 3.5-7.2 1.8-10.6l5.6-5.6c-1.7-1.2-3.1-2.6-4.4-4.3zm-7.1 16.4a3.32 3.32 0 0 1-4.7 0 3.32 3.32 0 0 1 0-4.7c1.3-1.3 3.4-1.3 4.7 0 1.3 1.3 1.3 3.4 0 4.7zm25.6-12c10.2 0 18.4-8.3 18.4-18.4 0-10.2-8.3-18.4-18.4-18.4S31.6 39.8 31.6 50 39.8 68.4 50 68.4zm-5.6-21.2l3.3 3.3 7.9-7.9 3.4 3.5-7.9 7.9-3.5 3.4-3.4-3.5-3.3-3.3 3.5-3.4z"></path></g><!----></svg>