<svg data-v-29081953="" xmlns="http://www.w3.org/2000/svg" viewBox="0 0 300 300"><!----><defs data-v-29081953=""><!----></defs><rect data-v-29081953="" fill="transparent" x="0" y="0" width="300px" height="300px" class="logo-background-square"></rect><!----><defs data-v-29081953=""><linearGradient data-v-29081953="" gradientTransform="rotate(25)" id="d8ee7d7a-90e7-4d5c-93b8-8a4f9c0029d0" x1="0%" y1="0%" x2="100%" y2="0%"><stop data-v-29081953="" offset="0%" stop-color="#0015D6" stop-opacity="1"></stop><stop data-v-29081953="" offset="100%" stop-color="#0989FB" stop-opacity="1"></stop></linearGradient></defs><g data-v-29081953="" id="497cb191-2b99-48cb-8d25-c59d0307ed6c" fill="url(#d8ee7d7a-90e7-4d5c-93b8-8a4f9c0029d0)" stroke="none" transform="matrix(2.249488592147827,0,0,2.249488592147827,37.52556178432016,37.52556178432016)"><path d="M68.4 35.9l5.6-5.6c3.5 1.7 7.7 1.1 10.6-1.8 3.6-3.6 3.6-9.5 0-13.1-3.6-3.6-9.5-3.6-13.1 0-2.8 2.8-3.4 7.1-1.8 10.5L64 31.5c1.7 1.3 3.1 2.7 4.4 4.4zm7.2-16.3c1.3-1.3 3.4-1.3 4.7 0 1.3 1.3 1.3 3.4 0 4.7a3.32 3.32 0 0 1-4.7 0 3.32 3.32 0 0 1 0-4.7zM50 26.8c1.1 0 2.1.1 3.1.2v-7.9c3.6-1.3 6.1-4.7 6.1-8.7 0-5.1-4.2-9.3-9.3-9.3-5.1 0-9.3 4.2-9.3 9.3 0 4.1 2.6 7.5 6.3 8.8V27c1.1-.1 2.1-.2 3.1-.2zm-3.4-16.4C46.6 8.5 48.1 7 50 7s3.4 1.5 3.4 3.4-1.5 3.4-3.4 3.4c-1.9-.1-3.4-1.6-3.4-3.4zM98.9 50c0-5.1-4.2-9.3-9.3-9.3-4 0-7.4 2.6-8.7 6.1H73c.1 1 .2 2.1.2 3.1s-.1 2-.2 3h7.8c1.3 3.6 4.7 6.3 8.8 6.3 5.2.1 9.3-4.1 9.3-9.2zm-12.6 0c0-1.9 1.5-3.4 3.4-3.4s3.4 1.5 3.4 3.4-1.5 3.4-3.4 3.4-3.4-1.5-3.4-3.4zM26 30.3l5.6 5.6c1.3-1.6 2.7-3.1 4.4-4.4l-5.6-5.6c1.6-3.4 1-7.7-1.8-10.5-3.6-3.6-9.5-3.6-13.1 0-3.6 3.6-3.6 9.5 0 13.1 2.8 2.9 7.1 3.5 10.5 1.8zm-6.4-10.7c1.3-1.3 3.4-1.3 4.7 0 1.3 1.3 1.3 3.4 0 4.7a3.32 3.32 0 0 1-4.7 0 3.32 3.32 0 0 1 0-4.7zm51.9 65c3.6 3.6 9.5 3.6 13.1 0 3.6-3.6 3.6-9.5 0-13.1-2.8-2.8-7.1-3.4-10.5-1.8L68.5 64c-1.3 1.6-2.7 3.1-4.4 4.4l5.6 5.6c-1.7 3.4-1.1 7.7 1.8 10.6zm4.1-9c1.3-1.3 3.4-1.3 4.7 0 1.3 1.3 1.3 3.4 0 4.7a3.32 3.32 0 0 1-4.7 0c-1.3-1.2-1.3-3.3 0-4.7zM10.4 59.3c4.1 0 7.5-2.6 8.8-6.3H27c-.1-1-.2-2-.2-3 0-1.1.1-2.1.2-3.1h-7.9a9.21 9.21 0 0 0-8.7-6.1c-5.1 0-9.3 4.2-9.3 9.3 0 5 4.1 9.2 9.3 9.2zm0-12.7c1.9 0 3.4 1.5 3.4 3.4s-1.5 3.4-3.4 3.4S7 51.9 7 50s1.5-3.4 3.4-3.4zm42.7 34.3V73c-1 .1-2.1.2-3.1.2s-2-.1-3-.2v7.8c-3.6 1.3-6.3 4.7-6.3 8.8 0 5.1 4.2 9.3 9.3 9.3 5.1 0 9.3-4.2 9.3-9.3 0-4-2.6-7.4-6.2-8.7zM50 93c-1.9 0-3.4-1.5-3.4-3.4s1.5-3.4 3.4-3.4 3.4 1.5 3.4 3.4S51.9 93 50 93zM31.5 64l-5.6 5.6c-3.4-1.6-7.7-1-10.5 1.8-3.6 3.6-3.6 9.5 0 13.1 3.6 3.6 9.5 3.6 13.1 0 2.9-2.9 3.5-7.2 1.8-10.6l5.6-5.6c-1.7-1.2-3.1-2.6-4.4-4.3zm-7.1 16.4a3.32 3.32 0 0 1-4.7 0 3.32 3.32 0 0 1 0-4.7c1.3-1.3 3.4-1.3 4.7 0 1.3 1.3 1.3 3.4 0 4.7zm25.6-12c10.2 0 18.4-8.3 18.4-18.4 0-10.2-8.3-18.4-18.4-18.4S31.6 39.8 31.6 50 39.8 68.4 50 68.4zm-5.6-21.2l3.3 3.3 7.9-7.9 3.4 3.5-7.9 7.9-3.5 3.4-3.4-3.5-3.3-3.3 3.5-3.4z"></path></g><!----></svg>